<?xml version="1.0" encoding="UTF-8" standalone="no"?><!DOCTYPE svg PUBLIC "-//W3C//DTD SVG 1.1//EN" "http://www.w3.org/Graphics/SVG/1.1/DTD/svg11.dtd"><svg width="100%" height="100%" viewBox="0 0 600 300" version="1.1" xmlns="http://www.w3.org/2000/svg" xmlns:xlink="http://www.w3.org/1999/xlink" xml:space="preserve" xmlns:serif="http://www.serif.com/" style="fill-rule:evenodd;clip-rule:evenodd;stroke-linejoin:round;stroke-miterlimit:1.5;"><text x="218.073px" y="72.795px" style="font-family:'JetBrainsMono-Regular', 'JetBrains Mono', monospace;font-size:45.833px;fill:#dcdcdc;">TARSYS</text><text x="18.813px" y="227.608px" style="font-family:'JetBrainsMono-Regular', 'JetBrains Mono', monospace;font-size:45.833px;fill:#dcdcdc;">SHEATH</text><text x="38.24px" y="258.83px" style="font-family:'JetBrainsMono-Regular', 'JetBrains Mono', monospace;font-size:20.833px;fill:#dcdcdc;">[SOFTWARE]</text><text x="434.927px" y="258.83px" style="font-family:'JetBrainsMono-Regular', 'JetBrains Mono', monospace;font-size:20.833px;fill:#dcdcdc;">[HARDWARE]</text><text x="218.75px" y="183.427px" style="font-family:'JetBrainsMono-Regular', 'JetBrains Mono', monospace;font-size:20.833px;fill:#dcdcdc;">[INFORMATION]</text><text x="414.813px" y="227.608px" style="font-family:'JetBrainsMono-Regular', 'JetBrains Mono', monospace;font-size:45.833px;fill:#dcdcdc;">TARCEL</text><path d="M100.74,180.136l-0,-79.092c-0,-11.929 4.738,-23.369 13.173,-31.804c8.435,-8.435 19.876,-13.174 31.804,-13.174l63.283,-0" style="fill:none;stroke:#dcdcdc;stroke-width:2.08px;"/><path d="M497.427,180.136l0,-79.092c0,-11.929 -4.739,-23.369 -13.174,-31.804c-8.435,-8.435 -19.875,-13.174 -31.804,-13.174l-63.282,-0" style="fill:none;stroke:#dcdcdc;stroke-width:2.08px;"/><path d="M239.573,195.731l-18.75,9.375l18.75,9.375l-0,-18.75Z" style="fill:#dcdcdc;"/><path d="M235.823,205.106l143.354,0" style="fill:none;stroke:#dcdcdc;stroke-width:2.08px;"/><path d="M360.427,236.511l18.75,-9.375l-18.75,-9.375l0,18.75Z" style="fill:#dcdcdc;"/><path d="M364.177,227.136l-143.354,-0" style="fill:none;stroke:#dcdcdc;stroke-width:2.08px;"/></svg>